<?xml version="1.0" encoding="UTF-8" standalone="no"?><!DOCTYPE svg PUBLIC "-//W3C//DTD SVG 1.1//EN" "http://www.w3.org/Graphics/SVG/1.1/DTD/svg11.dtd"><svg width="103px" height="103px" version="1.1" xmlns="http://www.w3.org/2000/svg" xmlns:xlink="http://www.w3.org/1999/xlink" xml:space="preserve" xmlns:serif="http://www.serif.com/" style="fill-rule:evenodd;clip-rule:evenodd;stroke-linejoin:round;stroke-miterlimit:2;"><path d="M51.105,0C79.31,0 102.21,22.899 102.21,51.105C102.21,79.31 79.31,102.21 51.105,102.21C22.899,102.21 0,79.31 0,51.105C0,22.899 22.899,0 51.105,0ZM66.539,47.124L58.669,47.124L58.669,69.937L66.539,69.937L66.539,47.124ZM72.253,83.612L72.253,75.742L58.669,75.742L58.669,83.612L72.253,83.612ZM52.904,60.665L29.957,60.665L29.957,68.536L45.034,68.536L45.034,83.612L52.904,83.612L52.904,60.665ZM29.957,47.124L29.957,54.994L52.904,54.994L52.904,47.124L29.957,47.124ZM29.957,74.207L29.957,83.612L39.362,83.612L39.362,74.207L29.957,74.207ZM66.539,18.597L58.669,18.597L58.669,41.411L66.539,41.411L66.539,18.597Z" style="fill:#fff;"/></svg>