<?xml version="1.0" encoding="UTF-8" standalone="no"?><!DOCTYPE svg PUBLIC "-//W3C//DTD SVG 1.1//EN" "http://www.w3.org/Graphics/SVG/1.1/DTD/svg11.dtd"><svg width="555px" height="425px" version="1.1" xmlns="http://www.w3.org/2000/svg" xmlns:xlink="http://www.w3.org/1999/xlink" xml:space="preserve" xmlns:serif="http://www.serif.com/" style="fill-rule:evenodd;clip-rule:evenodd;stroke-linejoin:round;stroke-miterlimit:2;"><path d="M217.308,300.965C169.011,269.268 142.733,210.059 155.712,150.277L120.262,282.578C43.592,262.035 -1.907,183.228 18.637,106.558C39.18,29.888 117.987,-15.611 194.657,4.933L155.803,149.938L436.536,211.59C427.96,250.641 404.255,282.466 372.931,302.26L534.743,208.838C574.431,277.578 550.878,365.476 482.138,405.163C413.398,444.85 325.501,421.298 285.814,352.558L362.928,308.036C333.996,323.232 299.751,328.695 265.333,321.137C249.794,317.724 235.399,311.916 222.451,304.186C261.591,329.863 287.44,374.134 287.44,424.441L0,424.441C-0,345.067 64.346,280.722 143.72,280.722C170.614,280.722 195.783,288.109 217.308,300.965Z" style="fill:#218be9;"/></svg>