<?xml version="1.0" encoding="UTF-8" standalone="no"?><!DOCTYPE svg PUBLIC "-//W3C//DTD SVG 1.1//EN" "http://www.w3.org/Graphics/SVG/1.1/DTD/svg11.dtd"><svg width="103px" height="103px" version="1.1" xmlns="http://www.w3.org/2000/svg" xmlns:xlink="http://www.w3.org/1999/xlink" xml:space="preserve" xmlns:serif="http://www.serif.com/" style="fill-rule:evenodd;clip-rule:evenodd;stroke-linejoin:round;stroke-miterlimit:2;"><path d="M51.105,0C79.31,0 102.21,22.899 102.21,51.105C102.21,79.31 79.31,102.21 51.105,102.21C22.899,102.21 0,79.31 0,51.105C0,22.899 22.899,0 51.105,0ZM43.765,23.225C43.765,32.951 51.649,40.835 61.375,40.835C71.1,40.835 78.985,32.951 78.985,23.225L43.765,23.225ZM58.445,78.985C58.445,69.259 50.561,61.375 40.835,61.375C31.109,61.375 23.225,69.259 23.225,78.985L58.445,78.985ZM61.375,78.985C71.1,78.985 78.985,71.1 78.985,61.375C78.985,51.649 71.1,43.765 61.375,43.765L61.375,78.985ZM40.835,23.225C31.109,23.225 23.225,31.109 23.225,40.835C23.225,50.561 31.109,58.445 40.835,58.445L40.835,23.225Z" style="fill:#fff;"/></svg>