<?xml version="1.0" encoding="UTF-8" standalone="no"?><!DOCTYPE svg PUBLIC "-//W3C//DTD SVG 1.1//EN" "http://www.w3.org/Graphics/SVG/1.1/DTD/svg11.dtd"><svg width="103px" height="103px" version="1.1" xmlns="http://www.w3.org/2000/svg" xmlns:xlink="http://www.w3.org/1999/xlink" xml:space="preserve" xmlns:serif="http://www.serif.com/" style="fill-rule:evenodd;clip-rule:evenodd;stroke-linejoin:round;stroke-miterlimit:2;"><path d="M51.105,0C79.31,0 102.21,22.899 102.21,51.105C102.21,79.31 79.31,102.21 51.105,102.21C22.899,102.21 0,79.31 0,51.105C0,22.899 22.899,0 51.105,0ZM26.167,60.854L84.83,60.854L84.83,30.951L26.167,30.951L26.167,60.854ZM30.715,35.898L45.122,35.898L45.122,39.499L39.805,39.499L39.805,55.907L36.032,55.907L36.032,39.499L30.715,39.499L30.715,35.898ZM72.964,52.877C73.688,52.877 74.283,52.768 74.75,52.548C75.217,52.329 75.579,52.034 75.837,51.662C76.094,51.291 76.27,50.862 76.365,50.376C76.461,49.89 76.508,49.39 76.508,48.875L76.508,48.361L80.282,48.361L80.282,48.875C80.282,51.257 79.657,53.091 78.409,54.378C77.161,55.664 75.346,56.307 72.964,56.307C70.677,56.307 68.867,55.612 67.533,54.221C66.199,52.829 65.532,50.8 65.532,48.132L65.532,43.673C65.532,42.396 65.703,41.248 66.046,40.228C66.389,39.209 66.885,38.351 67.533,37.656C68.181,36.96 68.962,36.426 69.877,36.055C70.791,35.683 71.82,35.497 72.964,35.497C74.145,35.497 75.193,35.669 76.108,36.012C77.023,36.355 77.79,36.85 78.409,37.498C79.029,38.146 79.495,38.928 79.81,39.842C80.124,40.757 80.282,41.786 80.282,42.929L80.282,43.444L76.508,43.444L76.508,42.929C76.508,42.453 76.451,41.977 76.337,41.5C76.222,41.024 76.032,40.595 75.765,40.214C75.498,39.833 75.136,39.523 74.679,39.285C74.222,39.047 73.65,38.928 72.964,38.928C72.335,38.928 71.792,39.047 71.334,39.285C70.877,39.523 70.496,39.847 70.191,40.257C69.886,40.666 69.662,41.143 69.519,41.686C69.376,42.229 69.305,42.796 69.305,43.387L69.305,48.418C69.305,49.066 69.372,49.661 69.505,50.204C69.638,50.748 69.848,51.219 70.134,51.619C70.42,52.02 70.796,52.329 71.263,52.548C71.73,52.768 72.297,52.877 72.964,52.877ZM58.128,54.02L58.643,54.02L58.643,35.898L62.416,35.898L62.416,55.907L55.041,55.907L52.697,37.784L52.182,37.784L52.182,55.907L48.409,55.907L48.409,35.898L55.784,35.898L58.128,54.02ZM23.454,41.356L17.38,41.356L17.38,71.259L74.052,71.259L74.052,63.566L23.454,63.566L23.454,41.356Z" style="fill:#fff;"/></svg>